<svg width="75" height="84" viewBox="0 0 75 84" fill="none" xmlns="http://www.w3.org/2000/svg">
<rect x="1" width="74" height="74" rx="6" fill="#FFEAE0"/>
<g filter="url(#filter0_d_1_1040)">
<path fill-rule="evenodd" clip-rule="evenodd" d="M34.7975 22.5823C33.6579 22.5823 32.6884 23.3742 32.4163 24.4415H41.5669C41.2947 23.3742 40.3253 22.5823 39.1857 22.5823H34.7975ZM44.1521 24.4415H47.5198C51.0915 24.4415 54 27.3853 54 31.0005C54 31.0005 53.8979 32.5309 53.8639 34.6621C53.8605 34.8308 53.7789 34.9961 53.6445 35.0959C52.8264 35.7002 52.078 36.1994 52.01 36.2338C49.1866 38.1275 45.9057 39.46 42.4104 40.1227C42.1825 40.1675 41.958 40.0487 41.8423 39.8456C40.8626 38.1482 39.0325 37.043 36.9915 37.043C34.9641 37.043 33.117 38.1361 32.1084 39.8352C31.991 40.0349 31.7699 40.1503 31.5437 40.1072C28.0773 39.4427 24.7964 38.112 21.99 36.2511L20.3572 35.1149C20.2211 35.0288 20.1361 34.8738 20.1361 34.7017C20.085 33.8237 20 31.0005 20 31.0005C20 27.3853 22.9085 24.4415 26.4802 24.4415H29.8309C30.1541 21.9453 32.2461 20 34.7974 20H39.1856C41.7369 20 43.8289 21.9453 44.1521 24.4415ZM53.421 38.3859L53.3529 38.4203C49.9172 40.7271 45.7841 42.2593 41.447 42.8963C40.8347 42.9823 40.2224 42.5864 40.0523 41.9666C39.6781 40.555 38.4705 39.6254 37.0248 39.6254H37.0078H36.9737C35.528 39.6254 34.3204 40.555 33.9462 41.9666C33.7761 42.5864 33.1638 42.9823 32.5515 42.8963C28.2144 42.2593 24.0813 40.7271 20.6456 38.4203C20.6286 38.4031 20.4585 38.2998 20.3224 38.3859C20.1693 38.472 20.1693 38.6786 20.1693 38.6786L20.2884 47.4583C20.2884 51.0734 23.1798 54 26.7516 54H47.2299C50.8017 54 53.6931 51.0734 53.6931 47.4583L53.8292 38.6786C53.8292 38.6786 53.8292 38.472 53.6761 38.3859C53.591 38.3343 53.489 38.3515 53.421 38.3859ZM38.2657 45.599C38.2657 46.322 37.7044 46.8901 36.9901 46.8901C36.2927 46.8901 35.7145 46.322 35.7145 45.599V43.3783C35.7145 42.6724 36.2927 42.0871 36.9901 42.0871C37.7044 42.0871 38.2657 42.6724 38.2657 43.3783V45.599Z" fill="#FB5F1C"/>
</g>
<defs>
<filter id="filter0_d_1_1040" x="0" y="10" width="74" height="74" filterUnits="userSpaceOnUse" color-interpolation-filters="sRGB">
<feFlood flood-opacity="0" result="BackgroundImageFix"/>
<feColorMatrix in="SourceAlpha" type="matrix" values="0 0 0 0 0 0 0 0 0 0 0 0 0 0 0 0 0 0 127 0" result="hardAlpha"/>
<feOffset dy="10"/>
<feGaussianBlur stdDeviation="10"/>
<feColorMatrix type="matrix" values="0 0 0 0 0.691667 0 0 0 0 0.322726 0 0 0 0 0.164271 0 0 0 0.2 0"/>
<feBlend mode="normal" in2="BackgroundImageFix" result="effect1_dropShadow_1_1040"/>
<feBlend mode="normal" in="SourceGraphic" in2="effect1_dropShadow_1_1040" result="shape"/>
</filter>
</defs>
</svg>
