<svg width="74" height="85" viewBox="0 0 74 85" fill="none" xmlns="http://www.w3.org/2000/svg">
<rect width="74" height="74" rx="6" fill="#F8F0DE"/>
<g filter="url(#filter0_d_1_1048)">
<path fill-rule="evenodd" clip-rule="evenodd" d="M52.0358 39.6703C52.6758 40.0095 53.1696 40.545 53.5171 41.0805C54.1937 42.1872 54.1389 43.5438 53.4805 44.7397L52.2004 46.8817C51.5237 48.0241 50.2619 48.7381 48.9634 48.7381C48.3234 48.7381 47.6102 48.5596 47.025 48.2026C46.5495 47.8992 46.0008 47.792 45.4156 47.792C43.6052 47.792 42.0873 49.2736 42.0324 51.0408C42.0324 53.0935 40.35 54.7 38.2469 54.7H35.7598C33.6384 54.7 31.9559 53.0935 31.9559 51.0408C31.9194 49.2736 30.4015 47.792 28.591 47.792C27.9875 47.792 27.4389 47.8992 26.9817 48.2026C26.3965 48.5596 25.665 48.7381 25.0432 48.7381C23.7265 48.7381 22.4646 48.0241 21.788 46.8817L20.5261 44.7397C19.8495 43.5795 19.8129 42.1872 20.4896 41.0805C20.7822 40.545 21.3308 40.0095 21.9526 39.6703C22.4646 39.4204 22.7938 39.0098 23.1047 38.5279C24.0191 36.9928 23.4705 34.9757 21.916 34.0654C20.1055 33.0479 19.5203 30.781 20.5627 29.0139L21.788 26.9075C22.8487 25.1404 25.1163 24.5157 26.9451 25.551C28.5361 26.4078 30.6026 25.8366 31.5353 24.3193C31.8279 23.8195 31.9925 23.284 31.9559 22.7485C31.9194 22.0524 32.1205 21.3919 32.468 20.8564C33.1446 19.7497 34.3699 19.0357 35.7049 19H38.2835C39.6367 19 40.862 19.7497 41.5387 20.8564C41.8678 21.3919 42.0873 22.0524 42.0324 22.7485C41.9959 23.284 42.1604 23.8195 42.453 24.3193C43.3857 25.8366 45.4522 26.4078 47.0615 25.551C48.872 24.5157 51.158 25.1404 52.2004 26.9075L53.4256 29.0139C54.4863 30.781 53.9011 33.0479 52.0723 34.0654C50.5179 34.9757 49.9693 36.9928 50.9019 38.5279C51.1945 39.0098 51.5237 39.4204 52.0358 39.6703ZM31.827 36.8679C31.827 39.6703 34.1495 41.9016 37.0206 41.9016C39.8918 41.9016 42.1595 39.6703 42.1595 36.8679C42.1595 34.0654 39.8918 31.8163 37.0206 31.8163C34.1495 31.8163 31.827 34.0654 31.827 36.8679Z" fill="#FFB200"/>
</g>
<defs>
<filter id="filter0_d_1_1048" x="0" y="9" width="74" height="75.7" filterUnits="userSpaceOnUse" color-interpolation-filters="sRGB">
<feFlood flood-opacity="0" result="BackgroundImageFix"/>
<feColorMatrix in="SourceAlpha" type="matrix" values="0 0 0 0 0 0 0 0 0 0 0 0 0 0 0 0 0 0 127 0" result="hardAlpha"/>
<feOffset dy="10"/>
<feGaussianBlur stdDeviation="10"/>
<feColorMatrix type="matrix" values="0 0 0 0 0.825 0 0 0 0 0.575882 0 0 0 0 0 0 0 0 0.2 0"/>
<feBlend mode="normal" in2="BackgroundImageFix" result="effect1_dropShadow_1_1048"/>
<feBlend mode="normal" in="SourceGraphic" in2="effect1_dropShadow_1_1048" result="shape"/>
</filter>
</defs>
</svg>
