<svg width="80" height="80" viewBox="0 0 80 80" fill="none" xmlns="http://www.w3.org/2000/svg">
<circle cx="40" cy="40" r="40" fill="#FFE8E0"/>
<path d="M48.4204 42.1051C44.7758 42.1051 41.8398 45.022 41.8398 48.6431C41.8398 52.2641 44.8095 55.181 48.4204 55.181C52.0312 55.181 55.0009 52.2641 55.0009 48.6431C55.0009 45.022 52.065 42.1051 48.4204 42.1051ZM52.0312 47.9725L48.0829 51.8953C47.6105 52.3647 46.8681 52.3647 46.3956 51.8953L44.8433 50.353C44.3708 49.8836 44.3708 49.146 44.8433 48.6766C45.3157 48.2072 46.0581 48.2072 46.5306 48.6766L47.2393 49.3807L50.3439 46.2961C50.8164 45.8267 51.5588 45.8267 52.0312 46.2961C52.5037 46.7655 52.5037 47.5031 52.0312 47.9725Z" fill="#F57343"/>
<path d="M40.1521 48.6431C40.1521 44.1168 43.8642 40.4288 48.42 40.4288H49.8036V25.3747C49.8036 24.6035 49.1961 24 48.42 24H26.3836C25.6412 24 25 24.6035 25 25.3747V55.4829C25 56.254 25.6074 56.8575 26.3836 56.8575H48.42C43.8642 56.8575 40.1521 53.1694 40.1521 48.6431ZM34.1453 47.0673H31.1756C30.3994 47.0673 29.792 46.4638 29.792 45.6927C29.792 44.9215 30.3994 44.318 31.1756 44.318H34.1453C34.9214 44.318 35.5289 44.9215 35.5289 45.6927C35.5289 46.4638 34.9214 47.0673 34.1453 47.0673ZM37.0812 39.8252H31.1756C30.3994 39.8252 29.792 39.2217 29.792 38.4506C29.792 37.6794 30.3994 37.0759 31.1756 37.0759H37.0475C37.8236 37.0759 38.4311 37.6794 38.4311 38.4506C38.4311 39.2217 37.8236 39.8252 37.0812 39.8252ZM31.1756 32.5832C30.3994 32.5832 29.792 31.9797 29.792 31.2085C29.792 30.4374 30.3994 29.8339 31.1756 29.8339H39.8147C40.5908 29.8339 41.1983 30.4374 41.1983 31.2085C41.1983 31.9797 40.5908 32.5832 39.8147 32.5832H31.1756Z" fill="#F57343"/>
</svg>
