<svg width="80" height="80" viewBox="0 0 80 80" fill="none" xmlns="http://www.w3.org/2000/svg">
<circle cx="40" cy="40" r="40" fill="#FFF0CD"/>
<path fill-rule="evenodd" clip-rule="evenodd" d="M29.2632 21C26.9087 21 25 22.9087 25 25.2632V55.0702C25 57.4247 26.9087 59.3333 29.2632 59.3333H50.7368C53.0913 59.3333 55 57.4247 55 55.0702V25.2632C55 22.9087 53.0913 21 50.7368 21H29.2632ZM32.0958 38.2013H47.4116C48.1222 38.2013 48.6748 38.7604 48.7143 39.4791C48.7143 40.1979 48.1616 40.7569 47.4511 40.7569H32.0958C31.3853 40.7569 30.8327 40.1979 30.8327 39.4791C30.8327 38.7604 31.3853 38.2013 32.0958 38.2013ZM47.4116 44.3905H32.0958C31.3853 44.3905 30.8327 44.9495 30.8327 45.6683C30.8327 46.387 31.3853 46.9461 32.0958 46.9461H47.4511C48.1616 46.9461 48.7143 46.387 48.7143 45.6683C48.6748 44.9495 48.1222 44.3905 47.4116 44.3905ZM32.0958 50.5797H47.4116C48.1222 50.5797 48.7143 51.1387 48.7143 51.8574C48.7143 52.5762 48.1616 53.1352 47.4511 53.1352H32.0958C31.3853 53.1352 30.8327 52.5762 30.8327 51.8574C30.8327 51.1387 31.3853 50.5797 32.0958 50.5797ZM43.0697 34.6076C43.0697 33.0503 42.5566 31.7326 41.4908 31.0538C41.4513 31.0138 41.3724 31.0138 41.3329 31.0538C40.8987 31.3732 40.346 31.5728 39.7539 31.5728C39.1618 31.5728 38.6092 31.3732 38.175 31.0538C38.1355 31.0138 38.0566 31.0138 38.0171 31.0538C36.9513 31.7326 36.4382 33.0902 36.4382 34.6076C36.4382 35.6857 43.0697 35.6857 43.0697 34.6076ZM41.7267 28.8974C41.7267 30.0001 40.843 30.8939 39.753 30.8939C38.6629 30.8939 37.7793 30.0001 37.7793 28.8974C37.7793 27.7948 38.6629 26.9009 39.753 26.9009C40.843 26.9009 41.7267 27.7948 41.7267 28.8974Z" fill="#F8C546"/>
</svg>
