<svg width="80" height="80" viewBox="0 0 80 80" fill="none" xmlns="http://www.w3.org/2000/svg">
<circle cx="40" cy="40" r="40" fill="#EBDDFD"/>
<path d="M50.4204 41.105C46.7758 41.105 43.8398 44.0219 43.8398 47.643C43.8398 51.264 46.8095 54.1809 50.4204 54.1809C54.0312 54.1809 57.0009 51.264 57.0009 47.643C57.0009 44.0219 54.065 41.105 50.4204 41.105ZM54.0312 46.9724L50.0829 50.8952C49.6105 51.3646 48.8681 51.3646 48.3956 50.8952L46.8433 49.3529C46.3708 48.8835 46.3708 48.1459 46.8433 47.6765C47.3157 47.2071 48.0581 47.2071 48.5306 47.6765L49.2393 48.3806L52.3439 45.296C52.8164 44.8266 53.5588 44.8266 54.0312 45.296C54.5037 45.7654 54.5037 46.503 54.0312 46.9724Z" fill="#864BD8"/>
<path d="M42.1521 47.6431C42.1521 43.1168 45.8642 39.4288 50.42 39.4288H51.8036V24.3747C51.8036 23.6035 51.1961 23 50.42 23H28.3836C27.6412 23 27 23.6035 27 24.3747V54.4829C27 55.254 27.6074 55.8575 28.3836 55.8575H50.42C45.8642 55.8575 42.1521 52.1694 42.1521 47.6431ZM36.1453 46.0673H33.1756C32.3994 46.0673 31.792 45.4638 31.792 44.6927C31.792 43.9215 32.3994 43.318 33.1756 43.318H36.1453C36.9214 43.318 37.5289 43.9215 37.5289 44.6927C37.5289 45.4638 36.9214 46.0673 36.1453 46.0673ZM39.0812 38.8252H33.1756C32.3994 38.8252 31.792 38.2217 31.792 37.4506C31.792 36.6794 32.3994 36.0759 33.1756 36.0759H39.0475C39.8236 36.0759 40.4311 36.6794 40.4311 37.4506C40.4311 38.2217 39.8236 38.8252 39.0812 38.8252ZM33.1756 31.5832C32.3994 31.5832 31.792 30.9797 31.792 30.2085C31.792 29.4374 32.3994 28.8339 33.1756 28.8339H41.8147C42.5908 28.8339 43.1983 29.4374 43.1983 30.2085C43.1983 30.9797 42.5908 31.5832 41.8147 31.5832H33.1756Z" fill="#864BD8"/>
</svg>
