<svg xmlns="http://www.w3.org/2000/svg" width="16" height="17" fill="none" viewBox="0 0 16 17"><rect width="16" height="16" y=".5" fill="#000" rx="8"/><path fill="#fff" d="M6.34476 11.052C6.34476 11.0933 6.29839 11.1264 6.23992 11.1264C6.17339 11.1326 6.12702 11.0995 6.12702 11.052C6.12702 11.0106 6.17339 10.9775 6.23185 10.9775C6.29234 10.9713 6.34476 11.0044 6.34476 11.052ZM5.71774 10.9589C5.70363 11.0003 5.74395 11.0478 5.80444 11.0603C5.85685 11.0809 5.91734 11.0603 5.92944 11.0189C5.94153 10.9775 5.90323 10.93 5.84274 10.9114C5.79032 10.8969 5.73185 10.9176 5.71774 10.9589ZM6.60887 10.9238C6.5504 10.9383 6.51008 10.9775 6.51613 11.0251C6.52218 11.0665 6.5746 11.0933 6.63508 11.0789C6.69355 11.0644 6.73387 11.0251 6.72782 10.9837C6.72177 10.9445 6.66734 10.9176 6.60887 10.9238ZM7.93548 3C5.13911 3 3 5.17739 3 8.04541C3 10.3386 4.40726 12.3009 6.41734 12.9916C6.6754 13.0391 6.76613 12.8758 6.76613 12.7414C6.76613 12.6132 6.76008 11.906 6.76008 11.4717C6.76008 11.4717 5.34879 11.7819 5.05242 10.8555C5.05242 10.8555 4.82258 10.2538 4.49194 10.0987C4.49194 10.0987 4.03024 9.77409 4.52419 9.78029C4.52419 9.78029 5.02621 9.82165 5.30242 10.3138C5.74395 11.112 6.48387 10.8824 6.77218 10.746C6.81855 10.4151 6.9496 10.1856 7.09476 10.0491C5.96774 9.9209 4.83065 9.75341 4.83065 7.76419C4.83065 7.19555 4.98387 6.9102 5.30645 6.54626C5.25403 6.41186 5.08266 5.85769 5.35887 5.14223C5.78024 5.00783 6.75 5.70054 6.75 5.70054C7.15323 5.58474 7.58669 5.52478 8.01613 5.52478C8.44556 5.52478 8.87903 5.58474 9.28226 5.70054C9.28226 5.70054 10.252 5.00576 10.6734 5.14223C10.9496 5.85976 10.7782 6.41186 10.7258 6.54626C11.0484 6.91226 11.246 7.19762 11.246 7.76419C11.246 9.75961 10.0585 9.91883 8.93145 10.0491C9.11694 10.2125 9.27419 10.5226 9.27419 11.0086C9.27419 11.7054 9.26815 12.5677 9.26815 12.7372C9.26815 12.8716 9.36089 13.035 9.61694 12.9874C11.6331 12.3009 13 10.3386 13 8.04541C13 5.17739 10.7319 3 7.93548 3ZM4.95968 10.1318C4.93347 10.1525 4.93952 10.2001 4.97379 10.2393C5.00605 10.2724 5.05242 10.2869 5.07863 10.26C5.10484 10.2393 5.09879 10.1918 5.06452 10.1525C5.03226 10.1194 4.98589 10.1049 4.95968 10.1318ZM4.74194 9.96433C4.72782 9.99121 4.74798 10.0243 4.78831 10.045C4.82056 10.0656 4.86089 10.0594 4.875 10.0305C4.88911 10.0036 4.86895 9.97053 4.82863 9.94985C4.78831 9.93745 4.75605 9.94365 4.74194 9.96433ZM5.39516 10.7005C5.3629 10.7273 5.375 10.7894 5.42137 10.8287C5.46774 10.8762 5.52621 10.8824 5.55242 10.8493C5.57863 10.8225 5.56653 10.7604 5.52621 10.7211C5.48185 10.6736 5.42137 10.6674 5.39516 10.7005ZM5.16532 10.3965C5.13306 10.4172 5.13306 10.4709 5.16532 10.5185C5.19758 10.5661 5.25202 10.5867 5.27823 10.5661C5.31048 10.5392 5.31048 10.4854 5.27823 10.4379C5.25 10.3903 5.19758 10.3696 5.16532 10.3965Z"/></svg>