<svg xmlns="http://www.w3.org/2000/svg" width="16" height="16" fill="none" viewBox="0 0 16 16"><rect width="16" height="16" fill="#0077B5" rx="8"/><path fill="#fff" d="M8.16667 11.5H6.5V6.5H8.16667V7.33333C8.52193 6.88136 9.06068 6.61191 9.63542 6.59875C10.669 6.60449 11.503 7.44557 11.5 8.47917V11.5H9.83333V8.6875C9.76668 8.22193 9.3674 7.87649 8.89708 7.8775C8.69137 7.884 8.49718 7.97407 8.35935 8.12693C8.22152 8.27978 8.15194 8.48221 8.16667 8.6875V11.5ZM5.66667 11.5H4V6.5H5.66667V11.5ZM4.83333 5.66667C4.3731 5.66667 4 5.29357 4 4.83333C4 4.3731 4.3731 4 4.83333 4C5.29357 4 5.66667 4.3731 5.66667 4.83333C5.66667 5.05435 5.57887 5.26631 5.42259 5.42259C5.26631 5.57887 5.05435 5.66667 4.83333 5.66667Z"/></svg>