<svg width="16" height="16" viewBox="0 0 16 16" fill="none" xmlns="http://www.w3.org/2000/svg">
<rect width="16" height="16" rx="8" fill="#00ACEE"/>
<path d="M11.6892 5.11633C12.0627 4.89304 12.3422 4.54143 12.4754 4.12717C12.1244 4.33542 11.7404 4.48212 11.34 4.56092C10.7848 3.97364 9.90521 3.83072 9.19267 4.21202C8.48012 4.59333 8.11104 5.40445 8.29167 6.19217C6.854 6.11999 5.51457 5.44088 4.60667 4.32383C4.13285 5.14109 4.37498 6.18583 5.16 6.71133C4.87613 6.70221 4.59855 6.62535 4.35042 6.48717C4.35042 6.49467 4.35042 6.50217 4.35042 6.50967C4.35058 7.36098 4.95057 8.09428 5.785 8.263C5.52169 8.33464 5.2455 8.34518 4.9775 8.29383C5.21217 9.02186 5.88315 9.52062 6.64792 9.5355C6.01451 10.0326 5.23228 10.3022 4.42708 10.3009C4.28436 10.3011 4.14175 10.2929 4 10.2763C4.81766 10.8018 5.76932 11.0806 6.74125 11.0797C8.09344 11.089 9.39293 10.5559 10.3491 9.59967C11.3052 8.64347 11.8381 7.34394 11.8287 5.99175C11.8287 5.91425 11.8269 5.83717 11.8233 5.7605C12.1735 5.50742 12.4758 5.1939 12.7158 4.83467C12.3896 4.97928 12.0435 5.07422 11.6892 5.11633Z" fill="white"/>
</svg>
